<svg width="46" height="24" viewBox="0 0 46 24" fill="none" xmlns="http://www.w3.org/2000/svg">
<path d="M16.8739 23.9649C18.1134 23.9649 19.3022 23.4725 20.1786 22.5961C21.0551 21.7196 21.5474 20.5309 21.5474 19.2914C21.5474 18.0519 21.0551 16.8632 20.1786 15.9868C19.3022 15.1103 18.1134 14.6179 16.8739 14.6179C15.6345 14.6179 14.4457 15.1103 13.5693 15.9868C12.6928 16.8632 12.2004 18.0519 12.2004 19.2914C12.2004 20.5309 12.6928 21.7196 13.5693 22.5961C14.4457 23.4725 15.6345 23.9649 16.8739 23.9649ZM29.0879 23.9649C30.3274 23.9649 31.5161 23.4725 32.3926 22.5961C33.2691 21.7196 33.7614 20.5309 33.7614 19.2914C33.7614 18.0519 33.2691 16.8632 32.3926 15.9868C31.5161 15.1103 30.3274 14.6179 29.0879 14.6179C27.8485 14.6179 26.6597 15.1103 25.7833 15.9868C24.9068 16.8632 24.4144 18.0519 24.4144 19.2914C24.4144 20.5309 24.9068 21.7196 25.7833 22.5961C26.6597 23.4725 27.8485 23.9649 29.0879 23.9649Z" fill="white"/>
<path d="M22.973 0C10.284 0 -0.00299934 10.483 6.56001e-07 23.411H5.869C5.869 13.723 13.466 5.868 22.973 5.868C32.48 5.868 40.077 13.723 40.077 23.411H45.946C45.948 10.483 35.66 0 22.973 0Z" fill="white"/>
</svg>
