<svg width="26" height="37" viewBox="0 0 26 37" fill="none" xmlns="http://www.w3.org/2000/svg">
<path fill-rule="evenodd" clip-rule="evenodd" d="M12.9619 0L22.1259 14.258L12.9619 19.563L3.79785 14.258L12.9619 0ZM6.60185 13.58L12.9619 3.689L19.3219 13.581L12.9619 17.261L6.60185 13.581V13.58Z" fill="white"/>
<path d="M12.954 22.6969L2.32297 16.5439L2.03597 16.9919C0.448641 19.4622 -0.243171 22.4023 0.0760556 25.3212C0.395282 28.2401 1.70622 30.9611 3.78997 33.0299C8.84697 38.0569 17.052 38.0569 22.118 33.0299C24.2052 30.9632 25.5185 28.2418 25.8379 25.3219C26.1572 22.4019 25.4631 19.461 23.872 16.9919L23.585 16.5439L12.954 22.6969Z" fill="white"/>
</svg>
