<svg width="113" height="62" viewBox="0 0 113 62" fill="none" xmlns="http://www.w3.org/2000/svg">
<path d="M0.102693 26.5806C-0.2466 27.6285 0.319722 28.7611 1.36761 29.1104C2.4155 29.4597 3.54814 28.8934 3.89743 27.8455L0.102693 26.5806ZM95.0001 60.2128L112.357 44.9792L90.4859 37.5643L95.0001 60.2128ZM3.89743 27.8455C4.96285 24.6492 8.53124 20.2606 13.7472 16.0139C18.8902 11.8267 25.3388 8.01988 31.7628 5.85852C38.2303 3.68251 44.3698 3.27065 49.1331 5.41204C53.759 7.49169 57.5927 12.2184 59.0233 21.517L62.9768 20.9088C61.4073 10.7074 56.9911 4.5591 50.7732 1.76376C44.6927 -0.969832 37.3947 -0.256679 30.4873 2.06734C23.5363 4.406 16.6724 8.47422 11.2217 12.912C5.84387 17.2904 1.53728 22.2768 0.102693 26.5806L3.89743 27.8455ZM59.0233 21.517C60.3912 30.4087 56.3889 38.1056 50.0004 44.1508C43.594 50.2129 34.9798 54.404 27.7802 56.1439C24.1691 57.0166 21.0713 57.2338 18.8674 56.867C16.6159 56.4923 15.8764 55.6533 15.6917 54.9054C15.4475 53.9166 15.7824 51.8971 18.2648 48.4904C20.6737 45.1846 24.8209 40.9669 31.2567 35.7688L28.7433 32.657C22.1791 37.9589 17.7326 42.4287 15.0321 46.1347C12.4052 49.7397 11.115 53.0562 11.8083 55.8642C12.5611 58.9131 15.3216 60.332 18.2108 60.8127C21.1474 61.3014 24.8309 60.9718 28.7198 60.032C36.5203 58.1468 45.781 53.6504 52.7497 47.0562C59.7362 40.4452 64.6088 31.5171 62.9768 20.9088L59.0233 21.517ZM31.2567 35.7688C50.8642 19.932 67.342 17.397 78.9553 20.863C90.6331 24.3482 97.7847 33.9799 98.7899 43.3811L102.767 42.9558C101.587 31.9216 93.2929 20.9677 80.0992 17.03C66.8409 13.0731 49.022 16.2781 28.7433 32.657L31.2567 35.7688Z" fill="black"/>
</svg>
