<svg width="33" height="32" viewBox="0 0 33 32" fill="none" xmlns="http://www.w3.org/2000/svg">
<path fill-rule="evenodd" clip-rule="evenodd" d="M30.0124 2.08757C27.064 -0.860832 21.6904 -0.508633 16.0914 2.51017C15.2554 2.96017 15.318 4.80817 16.1094 5.29157C20.4578 7.98144 24.119 11.6482 26.8024 16.0006C27.2836 16.7926 29.153 16.8198 29.5898 16.0086C29.487 15.8174 29.3812 15.6265 29.2724 15.436C29.3807 15.6265 29.4865 15.8174 29.5898 16.0086C32.6086 10.4096 32.9608 5.03597 30.0124 2.08757ZM23.7814 8.31857C22.18 6.70875 20.4255 5.25889 18.5428 3.98957C20.7104 2.98717 22.7752 2.44977 24.5242 2.44977C26.088 2.44977 27.4002 2.87857 28.3098 3.78817C30.2398 5.71817 30.0104 9.45357 28.1106 13.5574C26.8395 11.6758 25.3897 9.92139 23.7814 8.31857Z" fill="#FFC750"/>
<path fill-rule="evenodd" clip-rule="evenodd" d="M31.3145 20.0457C30.8679 18.6487 30.2904 17.297 29.5897 16.0085C29.1469 15.1853 27.2819 15.2101 26.8023 16.0005C25.4724 18.1753 23.8866 20.1828 22.0787 21.9799C20.2851 23.7888 18.2811 25.376 16.1095 26.7075C15.3179 27.1909 15.2823 29.0541 16.0915 29.4887C19.0719 31.0967 21.9883 31.9481 24.5101 31.9481C26.7239 31.9481 28.6337 31.2921 30.0123 29.9133C32.1699 27.7559 32.6307 24.2521 31.3145 20.0457ZM28.3097 28.2107C26.3797 30.1407 22.6463 29.9093 18.5427 28.0095C20.4254 26.7402 22.1799 25.2903 23.7813 23.6805C25.3904 22.0808 26.8409 20.329 28.1125 18.4497C30.0103 22.5515 30.2397 26.2827 28.3097 28.2107Z" fill="#FF6895"/>
<path fill-rule="evenodd" clip-rule="evenodd" d="M16.0915 2.50982C14.8028 1.80817 13.4503 1.23063 12.0523 0.785021C7.84806 -0.530979 4.34406 -0.0703781 2.18666 2.08702C0.808055 3.46582 0.151855 5.37582 0.151855 7.58982C0.151855 10.1116 1.00326 13.0298 2.60926 16.0104C3.04606 16.8196 4.90925 16.783 5.39265 15.9904C8.08304 11.6382 11.7529 7.97449 16.1097 5.29142C16.8963 4.81342 16.9127 2.95082 16.0917 2.51002L16.0915 2.50982ZM4.09046 13.557C2.19046 9.45322 1.95926 5.71782 3.88926 3.78782C5.38066 2.29642 8.02526 2.04482 11.3339 3.08342C12.1262 3.33402 12.9019 3.63448 13.6563 3.98302C9.89214 6.5422 6.64641 9.79071 4.09046 13.557Z" fill="#5FC5A6"/>
<path fill-rule="evenodd" clip-rule="evenodd" d="M16.1096 26.7072C13.9307 25.3774 11.9197 23.7903 10.12 21.98C8.30955 20.1804 6.72227 18.1695 5.39239 15.9906C4.91279 15.2046 3.04979 15.1896 2.60899 16.0106C1.90887 17.2984 1.33204 18.6494 0.886191 20.0458C-0.432009 24.2522 0.0307909 27.756 2.18619 29.9134C3.53879 31.264 5.41859 31.9502 7.66859 31.9502C9.15856 31.9276 10.6365 31.6793 12.052 31.2136C13.4497 30.7671 14.8021 30.1896 16.0912 29.4888C16.7412 29.1408 16.8952 27.187 16.1092 26.7074L16.1096 26.7072ZM11.3336 28.9172C8.02499 29.9534 5.38059 29.702 3.88919 28.2106C2.39779 26.7194 2.14619 24.0746 3.18279 20.766C3.43311 19.9742 3.73358 19.1992 4.08239 18.4456C5.35598 20.3262 6.8084 22.0793 8.41939 23.6804C10.0197 25.2924 11.7736 26.7443 13.6562 28.0154C12.9022 28.3654 12.1264 28.6665 11.3338 28.917L11.3336 28.9172Z" fill="#9B56F6"/>
<path fill-rule="evenodd" clip-rule="evenodd" d="M10.7285 15.8546L16.1001 7.41357L21.4717 15.8546L16.1001 18.9242L10.7285 15.8546Z" fill="#DADEE9"/>
<path fill-rule="evenodd" clip-rule="evenodd" d="M10.7285 17.2964L16.1001 20.3658L21.4717 17.2964L16.1001 24.5864L10.7285 17.2964Z" fill="#DADEE9"/>
<path fill-rule="evenodd" clip-rule="evenodd" d="M18.5429 3.98897C17.7086 4.37829 16.8963 4.813 16.1096 5.29117C15.318 4.80773 14.4988 4.37098 13.6562 3.98317C14.4428 3.45152 15.2555 2.95976 16.0915 2.50977C16.9127 2.95057 17.7298 3.44363 18.5429 3.98897Z" fill="#5F9A34"/>
<path fill-rule="evenodd" clip-rule="evenodd" d="M29.5896 16.0083C29.1376 16.8458 28.6446 17.6605 28.1124 18.4495C27.7208 17.6098 27.2834 16.7922 26.8022 16.0003C27.2819 15.21 27.7185 14.3945 28.1102 13.5571C28.6537 14.3681 29.1468 15.1851 29.5896 16.0083Z" fill="#FF512F"/>
<path fill-rule="evenodd" clip-rule="evenodd" d="M18.5429 28.0095C18.3739 28.1243 18.2048 28.2349 18.0356 28.3435C17.4032 28.7511 16.7547 29.1331 16.0917 29.4887C15.2825 29.0541 14.4707 28.563 13.6562 28.0155C14.4988 27.6277 15.318 27.191 16.1096 26.7075C16.8955 27.1871 17.7078 27.6218 18.5429 28.0095Z" fill="#552990"/>
<path fill-rule="evenodd" clip-rule="evenodd" d="M5.39277 15.9903C4.90939 16.783 4.47194 17.6029 4.08257 18.4457C3.55246 17.6583 3.06081 16.8456 2.60938 16.0105C3.0622 15.1687 3.55654 14.3499 4.09057 13.5571C4.47827 14.3921 4.91316 15.2045 5.39277 15.9903Z" fill="#204FA0"/>
</svg>
