<svg width="216" height="66" viewBox="0 0 216 66" fill="none" xmlns="http://www.w3.org/2000/svg">
<mask id="path-1-outside-1_263_113" maskUnits="userSpaceOnUse" x="-2" y="-2" width="220" height="70" fill="black">
<rect fill="white" x="-2" y="-2" width="220" height="70"/>
<path d="M14.0625 37.875V66H0V0.375H14.0625V28.5H23.4375C29.6875 28.5 32.8125 25.375 32.8125 19.125V0.375H46.875V19.125C46.875 25.375 44.9219 30.0625 41.0156 33.1875C44.9219 36.3125 46.875 41 46.875 47.25V66H32.8125V47.25C32.8125 41 29.6875 37.875 23.4375 37.875H14.0625ZM51.5625 42.5625V0.375H65.625V42.5625C65.625 51.9375 68.75 56.625 75 56.625C81.25 56.625 84.375 51.9375 84.375 42.5625V0.375H98.4375V42.5625C98.4375 58.1875 90.625 66 75 66C59.375 66 51.5625 58.1875 51.5625 42.5625ZM117.188 23.8125V66H103.125V23.8125C103.125 8.1875 109.375 0.375 121.875 0.375C126.719 0.375 130.625 1.54688 133.594 3.89062C136.562 1.54688 140.469 0.375 145.312 0.375C157.812 0.375 164.062 8.1875 164.062 23.8125V66H150V23.8125C150 14.4375 148.438 9.75 145.312 9.75C142.188 9.75 140.625 14.4375 140.625 23.8125V66H126.562V23.8125C126.562 14.4375 125 9.75 121.875 9.75C118.75 9.75 117.188 14.4375 117.188 23.8125ZM192.188 9.75C185.938 9.75 182.812 12.875 182.812 19.125H168.75C168.75 6.625 176.562 0.375 192.188 0.375C207.812 0.375 215.625 6.625 215.625 19.125V47.25C215.625 59.75 207.812 66 192.188 66C176.562 66 168.75 59.75 168.75 47.25V42.5625C168.75 30.0625 176.562 23.8125 192.188 23.8125C195.719 23.8125 198.844 24.125 201.562 24.75V19.125C201.562 12.875 198.438 9.75 192.188 9.75ZM201.562 42.5625C201.562 36.3125 198.438 33.1875 192.188 33.1875C185.938 33.1875 182.812 36.3125 182.812 42.5625V47.25C182.812 53.5 185.938 56.625 192.188 56.625C198.438 56.625 201.562 53.5 201.562 47.25V42.5625Z"/>
</mask>
<path d="M14.0625 37.875V66H0V0.375H14.0625V28.5H23.4375C29.6875 28.5 32.8125 25.375 32.8125 19.125V0.375H46.875V19.125C46.875 25.375 44.9219 30.0625 41.0156 33.1875C44.9219 36.3125 46.875 41 46.875 47.25V66H32.8125V47.25C32.8125 41 29.6875 37.875 23.4375 37.875H14.0625ZM51.5625 42.5625V0.375H65.625V42.5625C65.625 51.9375 68.75 56.625 75 56.625C81.25 56.625 84.375 51.9375 84.375 42.5625V0.375H98.4375V42.5625C98.4375 58.1875 90.625 66 75 66C59.375 66 51.5625 58.1875 51.5625 42.5625ZM117.188 23.8125V66H103.125V23.8125C103.125 8.1875 109.375 0.375 121.875 0.375C126.719 0.375 130.625 1.54688 133.594 3.89062C136.562 1.54688 140.469 0.375 145.312 0.375C157.812 0.375 164.062 8.1875 164.062 23.8125V66H150V23.8125C150 14.4375 148.438 9.75 145.312 9.75C142.188 9.75 140.625 14.4375 140.625 23.8125V66H126.562V23.8125C126.562 14.4375 125 9.75 121.875 9.75C118.75 9.75 117.188 14.4375 117.188 23.8125ZM192.188 9.75C185.938 9.75 182.812 12.875 182.812 19.125H168.75C168.75 6.625 176.562 0.375 192.188 0.375C207.812 0.375 215.625 6.625 215.625 19.125V47.25C215.625 59.75 207.812 66 192.188 66C176.562 66 168.75 59.75 168.75 47.25V42.5625C168.75 30.0625 176.562 23.8125 192.188 23.8125C195.719 23.8125 198.844 24.125 201.562 24.75V19.125C201.562 12.875 198.438 9.75 192.188 9.75ZM201.562 42.5625C201.562 36.3125 198.438 33.1875 192.188 33.1875C185.938 33.1875 182.812 36.3125 182.812 42.5625V47.25C182.812 53.5 185.938 56.625 192.188 56.625C198.438 56.625 201.562 53.5 201.562 47.25V42.5625Z" fill="white"/>
<path d="M14.0625 37.875V35.875H12.0625V37.875H14.0625ZM14.0625 66V68H16.0625V66H14.0625ZM0 66H-2V68H0V66ZM0 0.375V-1.625H-2V0.375H0ZM14.0625 0.375H16.0625V-1.625H14.0625V0.375ZM14.0625 28.5H12.0625V30.5H14.0625V28.5ZM32.8125 0.375V-1.625H30.8125V0.375H32.8125ZM46.875 0.375H48.875V-1.625H46.875V0.375ZM41.0156 33.1875L39.7662 31.6258L37.8141 33.1875L39.7662 34.7492L41.0156 33.1875ZM46.875 66V68H48.875V66H46.875ZM32.8125 66H30.8125V68H32.8125V66ZM12.0625 37.875V66H16.0625V37.875H12.0625ZM14.0625 64H0V68H14.0625V64ZM2 66V0.375H-2V66H2ZM0 2.375H14.0625V-1.625H0V2.375ZM12.0625 0.375V28.5H16.0625V0.375H12.0625ZM14.0625 30.5H23.4375V26.5H14.0625V30.5ZM23.4375 30.5C26.8708 30.5 29.8131 29.6403 31.883 27.5705C33.9528 25.5006 34.8125 22.5583 34.8125 19.125H30.8125C30.8125 21.9417 30.1097 23.6869 29.0545 24.742C27.9994 25.7972 26.2542 26.5 23.4375 26.5V30.5ZM34.8125 19.125V0.375H30.8125V19.125H34.8125ZM32.8125 2.375H46.875V-1.625H32.8125V2.375ZM44.875 0.375V19.125H48.875V0.375H44.875ZM44.875 19.125C44.875 24.9336 43.0819 28.9732 39.7662 31.6258L42.265 34.7492C46.7618 31.1518 48.875 25.8164 48.875 19.125H44.875ZM39.7662 34.7492C43.0819 37.4018 44.875 41.4414 44.875 47.25H48.875C48.875 40.5586 46.7618 35.2232 42.265 31.6258L39.7662 34.7492ZM44.875 47.25V66H48.875V47.25H44.875ZM46.875 64H32.8125V68H46.875V64ZM34.8125 66V47.25H30.8125V66H34.8125ZM34.8125 47.25C34.8125 43.8167 33.9528 40.8744 31.883 38.8045C29.8131 36.7347 26.8708 35.875 23.4375 35.875V39.875C26.2542 39.875 27.9994 40.5778 29.0545 41.633C30.1097 42.6881 30.8125 44.4333 30.8125 47.25H34.8125ZM23.4375 35.875H14.0625V39.875H23.4375V35.875ZM51.5625 0.375V-1.625H49.5625V0.375H51.5625ZM65.625 0.375H67.625V-1.625H65.625V0.375ZM84.375 0.375V-1.625H82.375V0.375H84.375ZM98.4375 0.375H100.438V-1.625H98.4375V0.375ZM53.5625 42.5625V0.375H49.5625V42.5625H53.5625ZM51.5625 2.375H65.625V-1.625H51.5625V2.375ZM63.625 0.375V42.5625H67.625V0.375H63.625ZM63.625 42.5625C63.625 47.4091 64.4213 51.3937 66.3046 54.2188C68.2834 57.1869 71.2924 58.625 75 58.625V54.625C72.4576 54.625 70.7791 53.7193 69.6329 52C68.3912 50.1375 67.625 47.0909 67.625 42.5625H63.625ZM75 58.625C78.7076 58.625 81.7166 57.1869 83.6954 54.2188C85.5787 51.3937 86.375 47.4091 86.375 42.5625H82.375C82.375 47.0909 81.6088 50.1375 80.3671 52C79.2209 53.7193 77.5424 54.625 75 54.625V58.625ZM86.375 42.5625V0.375H82.375V42.5625H86.375ZM84.375 2.375H98.4375V-1.625H84.375V2.375ZM96.4375 0.375V42.5625H100.438V0.375H96.4375ZM96.4375 42.5625C96.4375 50.0667 94.5628 55.3275 91.1639 58.7264C87.765 62.1253 82.5042 64 75 64V68C83.1208 68 89.5787 65.9684 93.9923 61.5548C98.4059 57.1412 100.438 50.6833 100.438 42.5625H96.4375ZM75 64C67.4958 64 62.235 62.1253 58.8361 58.7264C55.4372 55.3275 53.5625 50.0667 53.5625 42.5625H49.5625C49.5625 50.6833 51.5941 57.1412 56.0077 61.5548C60.4213 65.9684 66.8792 68 75 68V64ZM117.188 66V68H119.188V66H117.188ZM103.125 66H101.125V68H103.125V66ZM133.594 3.89062L132.354 5.46039L133.594 6.43878L134.833 5.46039L133.594 3.89062ZM164.062 66V68H166.062V66H164.062ZM150 66H148V68H150V66ZM140.625 66V68H142.625V66H140.625ZM126.562 66H124.562V68H126.562V66ZM115.188 23.8125V66H119.188V23.8125H115.188ZM117.188 64H103.125V68H117.188V64ZM105.125 66V23.8125H101.125V66H105.125ZM105.125 23.8125C105.125 16.2137 106.654 10.8847 109.374 7.48377C112.027 4.16807 116.066 2.375 121.875 2.375V-1.625C115.184 -1.625 109.848 0.488178 106.251 4.98498C102.721 9.39657 101.125 15.7863 101.125 23.8125H105.125ZM121.875 2.375C126.397 2.375 129.827 3.46536 132.354 5.46039L134.833 2.32086C131.423 -0.37161 127.041 -1.625 121.875 -1.625V2.375ZM134.833 5.46039C137.36 3.46536 140.791 2.375 145.312 2.375V-1.625C140.147 -1.625 135.765 -0.37161 132.354 2.32086L134.833 5.46039ZM145.312 2.375C151.121 2.375 155.161 4.16807 157.813 7.48377C160.534 10.8847 162.062 16.2137 162.062 23.8125H166.062C166.062 15.7863 164.466 9.39657 160.937 4.98498C157.339 0.488178 152.004 -1.625 145.312 -1.625V2.375ZM162.062 23.8125V66H166.062V23.8125H162.062ZM164.062 64H150V68H164.062V64ZM152 66V23.8125H148V66H152ZM152 23.8125C152 19.0666 151.611 15.2896 150.725 12.6332C149.857 10.0281 148.204 7.75 145.312 7.75V11.75C145.546 11.75 146.237 11.8156 146.931 13.8981C147.608 15.9292 148 19.1834 148 23.8125H152ZM145.312 7.75C142.421 7.75 140.768 10.0281 139.9 12.6332C139.014 15.2896 138.625 19.0666 138.625 23.8125H142.625C142.625 19.1834 143.017 15.9292 143.694 13.8981C144.388 11.8156 145.079 11.75 145.312 11.75V7.75ZM138.625 23.8125V66H142.625V23.8125H138.625ZM140.625 64H126.562V68H140.625V64ZM128.562 66V23.8125H124.562V66H128.562ZM128.562 23.8125C128.562 19.0666 128.173 15.2896 127.288 12.6332C126.42 10.0281 124.766 7.75 121.875 7.75V11.75C122.109 11.75 122.799 11.8156 123.493 13.8981C124.17 15.9292 124.562 19.1834 124.562 23.8125H128.562ZM121.875 7.75C118.984 7.75 117.33 10.0281 116.462 12.6332C115.577 15.2896 115.188 19.0666 115.188 23.8125H119.188C119.188 19.1834 119.58 15.9292 120.257 13.8981C120.951 11.8156 121.641 11.75 121.875 11.75V7.75ZM182.812 19.125V21.125H184.812V19.125H182.812ZM168.75 19.125H166.75V21.125H168.75V19.125ZM201.562 24.75L201.114 26.6992L203.562 27.2619V24.75H201.562ZM192.188 7.75C188.754 7.75 185.812 8.60968 183.742 10.6795C181.672 12.7494 180.812 15.6917 180.812 19.125H184.812C184.812 16.3083 185.515 14.5631 186.57 13.508C187.626 12.4528 189.371 11.75 192.188 11.75V7.75ZM182.812 17.125H168.75V21.125H182.812V17.125ZM170.75 19.125C170.75 13.3164 172.543 9.27679 175.859 6.62424C179.26 3.90351 184.589 2.375 192.188 2.375V-1.625C184.161 -1.625 177.772 -0.0285071 173.36 3.50076C168.863 7.09821 166.75 12.4336 166.75 19.125H170.75ZM192.188 2.375C199.786 2.375 205.115 3.90351 208.516 6.62424C211.832 9.27679 213.625 13.3164 213.625 19.125H217.625C217.625 12.4336 215.512 7.09821 211.015 3.50076C206.603 -0.0285071 200.214 -1.625 192.188 -1.625V2.375ZM213.625 19.125V47.25H217.625V19.125H213.625ZM213.625 47.25C213.625 53.0586 211.832 57.0982 208.516 59.7508C205.115 62.4715 199.786 64 192.188 64V68C200.214 68 206.603 66.4035 211.015 62.8742C215.512 59.2768 217.625 53.9414 217.625 47.25H213.625ZM192.188 64C184.589 64 179.26 62.4715 175.859 59.7508C172.543 57.0982 170.75 53.0586 170.75 47.25H166.75C166.75 53.9414 168.863 59.2768 173.36 62.8742C177.772 66.4035 184.161 68 192.188 68V64ZM170.75 47.25V42.5625H166.75V47.25H170.75ZM170.75 42.5625C170.75 36.7539 172.543 32.7143 175.859 30.0617C179.26 27.341 184.589 25.8125 192.188 25.8125V21.8125C184.161 21.8125 177.772 23.409 173.36 26.9383C168.863 30.5357 166.75 35.8711 166.75 42.5625H170.75ZM192.188 25.8125C195.606 25.8125 198.575 26.1155 201.114 26.6992L202.011 22.8008C199.112 22.1345 195.832 21.8125 192.188 21.8125V25.8125ZM203.562 24.75V19.125H199.562V24.75H203.562ZM203.562 19.125C203.562 15.6917 202.703 12.7494 200.633 10.6795C198.563 8.60968 195.621 7.75 192.188 7.75V11.75C195.004 11.75 196.749 12.4528 197.805 13.508C198.86 14.5631 199.562 16.3083 199.562 19.125H203.562ZM203.562 42.5625C203.562 39.1292 202.703 36.1869 200.633 34.117C198.563 32.0472 195.621 31.1875 192.188 31.1875V35.1875C195.004 35.1875 196.749 35.8903 197.805 36.9455C198.86 38.0006 199.562 39.7458 199.562 42.5625H203.562ZM192.188 31.1875C188.754 31.1875 185.812 32.0472 183.742 34.117C181.672 36.1869 180.812 39.1292 180.812 42.5625H184.812C184.812 39.7458 185.515 38.0006 186.57 36.9455C187.626 35.8903 189.371 35.1875 192.188 35.1875V31.1875ZM180.812 42.5625V47.25H184.812V42.5625H180.812ZM180.812 47.25C180.812 50.6833 181.672 53.6256 183.742 55.6955C185.812 57.7653 188.754 58.625 192.188 58.625V54.625C189.371 54.625 187.626 53.9222 186.57 52.867C185.515 51.8119 184.812 50.0667 184.812 47.25H180.812ZM192.188 58.625C195.621 58.625 198.563 57.7653 200.633 55.6955C202.703 53.6256 203.562 50.6833 203.562 47.25H199.562C199.562 50.0667 198.86 51.8119 197.805 52.867C196.749 53.9222 195.004 54.625 192.188 54.625V58.625ZM203.562 47.25V42.5625H199.562V47.25H203.562Z" fill="black" mask="url(#path-1-outside-1_263_113)"/>
</svg>
