<svg width="125" height="141" viewBox="0 0 125 141" fill="none" xmlns="http://www.w3.org/2000/svg">
<path d="M78.3059 64.2929L88.6109 46.8079L116.387 90.0699L116.4 98.3699L116.309 41.2389C116.276 40.5498 116.079 39.8786 115.732 39.2819C115.386 38.6853 114.901 38.1808 114.319 37.8109L64.3119 9.04793C63.7144 8.76405 63.0608 8.61827 62.3993 8.62139C61.7379 8.6245 61.0856 8.77644 60.4909 9.06594C60.3365 9.14331 60.1869 9.22979 60.0429 9.32493L59.8689 9.43493L11.3279 37.5629L11.1389 37.6479C10.8873 37.7644 10.6472 37.9044 10.4219 38.0659C9.51151 38.716 8.8911 39.696 8.69287 40.7969C8.66252 40.9639 8.64181 41.1325 8.63086 41.3019L8.70686 87.8579L34.5789 47.7579C37.8359 42.4409 44.9329 40.7279 51.5209 40.8209L59.2529 41.0209L13.6929 114.085L19.0639 117.177L65.1699 41.0939L85.5489 41.0199L39.5619 119.02L58.7279 130.05L61.0179 131.367C62.0057 131.759 63.1023 131.781 64.1049 131.428L114.815 102.041L105.115 107.659L78.3059 64.2929ZM82.2379 120.92L62.8819 90.5409L74.6969 70.4919L100.117 110.558L82.2379 120.92Z" fill="#2D374B"/>
<path d="M62.8818 90.5409L82.2379 120.919L100.118 110.557L74.6989 70.4919L62.8818 90.5409Z" fill="#28A0F0"/>
<path d="M116.403 98.3708L116.39 90.0708L88.6137 46.8088L78.3027 64.2918L105.117 107.658L114.817 102.04C115.286 101.659 115.67 101.184 115.944 100.645C116.217 100.105 116.374 99.5146 116.404 98.9108L116.403 98.3708Z" fill="#28A0F0"/>
<path d="M0.00488281 106.201L13.6959 114.09L59.2559 41.0258L51.5239 40.8258C44.9359 40.7328 37.8389 42.4448 34.5819 47.7628L8.70988 87.8628L0.0098877 101.236V106.205L0.00488281 106.201Z" fill="white"/>
<path d="M85.5514 41.0249L65.1734 41.0989L19.0674 117.182L35.1824 126.461L39.5644 119.028L85.5514 41.0249Z" fill="white"/>
<path d="M124.987 40.9199C124.894 38.8168 124.29 36.768 123.229 34.9501C122.167 33.1322 120.68 31.5998 118.894 30.4849L68.232 1.35089C66.4234 0.462142 64.4351 0 62.42 0C60.4049 0 58.4166 0.462142 56.608 1.35089C56.185 1.56389 7.34 29.8929 7.34 29.8929C6.66135 30.2187 6.01224 30.6028 5.39999 31.0409C3.81397 32.1688 2.50413 33.6413 1.56886 35.348C0.633592 37.0547 0.0972076 38.9512 0 40.8949V101.233L8.7 87.8599L8.633 41.3059C8.6737 40.6676 8.85545 40.0464 9.16515 39.4868C9.47484 38.9272 9.90478 38.4433 10.424 38.0699C10.654 37.9049 60.333 9.1489 60.491 9.0699C61.0857 8.7804 61.738 8.62847 62.3994 8.62535C63.0609 8.62224 63.7146 8.76802 64.312 9.0519L114.319 37.8169C114.901 38.1867 115.386 38.6913 115.733 39.2879C116.079 39.8846 116.277 40.5558 116.309 41.2449V98.9169C116.297 99.5148 116.157 100.103 115.9 100.643C115.642 101.183 115.272 101.661 114.814 102.046L105.114 107.664L100.114 110.564L82.234 120.926L64.101 131.435C63.0985 131.789 62.0018 131.767 61.014 131.374L39.561 119.035L35.179 126.467L54.459 137.567C55.097 137.929 55.665 138.251 56.131 138.513C56.853 138.913 57.345 139.188 57.518 139.272C59.131 139.979 60.875 140.338 62.636 140.325C64.2511 140.327 65.8522 140.026 67.356 139.437L120.023 108.937C121.509 107.781 122.723 106.314 123.581 104.638C124.438 102.962 124.917 101.118 124.985 99.2369L124.987 40.9199Z" fill="#96BEDC"/>
</svg>
