<svg width="570" height="496" viewBox="0 0 570 496" fill="none" xmlns="http://www.w3.org/2000/svg">
<path d="M433.438 300.936C442.277 285.881 464.228 285.881 472.97 300.936L566.895 461.395C575.734 476.45 564.661 495.196 547.08 495.196H359.231C341.65 495.196 330.674 476.45 339.416 461.395L433.341 300.936H433.438Z" fill="#FF394A"/>
<path d="M376.706 194.09C385.253 179.132 385.253 160.677 376.706 145.622L299.682 11.2914C291.037 -3.76379 269.474 -3.76379 260.83 11.2914L3.04605 461.295C-5.59853 476.35 5.18291 495.193 22.4721 495.193H176.423C193.615 495.193 209.448 485.966 217.995 471.008L376.609 194.09H376.706Z" fill="#FF394A"/>
</svg>
