<svg width="154" height="154" viewBox="0 0 154 154" fill="none" xmlns="http://www.w3.org/2000/svg">
<path d="M151.276 95.3738C141.019 136.514 99.35 161.552 58.2046 151.293C17.076 141.036 -7.96159 99.3647 2.30016 58.2265C12.5523 17.0811 54.2209 -7.95887 95.3543 2.29808C136.497 12.555 161.532 54.2308 151.276 95.3738Z" fill="#F7931A"/>
<path d="M110.634 65.8552C112.163 55.6367 104.382 50.1434 93.7437 46.4788L97.1947 32.6365L88.7689 30.5366L85.4091 44.0142C83.194 43.4622 80.919 42.9415 78.6583 42.4255L82.0421 28.8591L73.621 26.7593L70.1676 40.5968C68.3342 40.1792 66.5343 39.7665 64.7872 39.3321L64.7968 39.2889L53.1767 36.3875L50.9352 45.3869C50.9352 45.3869 57.1869 46.8196 57.0549 46.9084C60.4675 47.7603 61.0842 50.0186 60.981 51.8089L57.0501 67.5783C57.2853 67.6383 57.59 67.7247 57.926 67.8591C57.6452 67.7895 57.3453 67.7127 57.0357 67.6383L51.5256 89.7289C51.108 90.7656 50.0497 92.3207 47.6643 91.7304C47.7483 91.8528 41.5399 90.2017 41.5399 90.2017L37.3569 99.8466L48.3218 102.58C50.3617 103.091 52.3608 103.626 54.3286 104.13L50.8417 118.131L59.2579 120.231L62.7113 106.379C65.0104 107.003 67.2422 107.579 69.4261 108.121L65.9847 121.908L74.4106 124.008L77.8975 110.034C92.2654 112.753 103.07 111.656 107.617 98.6611C111.282 88.1978 107.435 82.1622 99.8754 78.2264C105.381 76.9569 109.528 73.3355 110.634 65.8552ZM91.3823 92.8511C88.7785 103.314 71.1612 97.658 65.4495 96.2397L70.0764 77.6913C75.7881 79.1168 94.1037 81.939 91.3823 92.8511ZM93.9885 65.704C91.6127 75.2218 76.9496 70.3861 72.1931 69.2006L76.388 52.3777C81.1445 53.5632 96.4628 55.7758 93.9885 65.704Z" fill="white"/>
</svg>
