<svg width="30" height="52" viewBox="0 0 30 52" fill="none" xmlns="http://www.w3.org/2000/svg">
<path d="M15.002 0.0209974C13.0632 0.0305755 11.1452 0.420402 9.35771 1.16828C7.57017 1.91617 5.94808 3.00751 4.58406 4.37982C3.22003 5.75211 2.14081 7.3786 1.40799 9.16633C0.675189 10.9541 0.303181 12.8681 0.313185 14.799V19.6804H12.248V12.6083C12.2478 12.2762 12.3134 11.9473 12.441 11.6404C12.5685 11.3336 12.7555 11.0547 12.9913 10.8199C13.227 10.585 13.507 10.3988 13.8151 10.2717C14.1232 10.1446 14.4534 10.0792 14.7869 10.0793H15.2172C15.5507 10.0792 15.881 10.1446 16.189 10.2717C16.4972 10.3988 16.7771 10.585 17.013 10.8199C17.2488 11.0547 17.4358 11.3336 17.5635 11.6404C17.691 11.9473 17.7566 12.2762 17.7566 12.6083V31.5666C19.3239 31.5666 20.876 31.2592 22.3239 30.662C23.7719 30.0646 25.0877 29.189 26.196 28.0854C27.3043 26.9816 28.1833 25.6712 28.7831 24.2291C29.3828 22.7871 29.6914 21.2413 29.6914 19.6804V14.799C29.6999 10.8867 28.153 7.13001 25.3888 4.3501C24.0325 2.9783 22.4157 1.88905 20.6323 1.14581C18.8492 0.402578 16.9352 0.0201914 15.002 0.0209974Z" fill="black"/>
<path d="M15.2178 41.1632H14.7875C14.4541 41.1632 14.1239 41.0978 13.8158 40.9709C13.5077 40.8438 13.2278 40.6575 12.992 40.4226C12.7563 40.1878 12.5692 39.9091 12.4417 39.6023C12.3141 39.2955 12.2485 38.9666 12.2486 38.6345V19.6764C10.6812 19.6762 9.12918 19.9835 7.68113 20.5807C6.23307 21.1781 4.91737 22.0536 3.80908 23.1573C2.70081 24.2611 1.82168 25.5715 1.22195 27.0137C0.622221 28.4558 0.313624 30.0016 0.313758 31.5625L0.313758 36.3759C0.293875 38.3097 0.659138 40.2282 1.38842 42.0205C2.11769 43.8128 3.19652 45.4433 4.56251 46.8178C5.92849 48.1921 7.55452 49.2832 9.34656 50.0279C11.1386 50.7725 13.0611 51.156 15.0029 51.156C16.9446 51.156 18.8671 50.7725 20.6592 50.0279C22.4512 49.2832 24.0773 48.1921 25.4433 46.8178C26.8093 45.4433 27.8881 43.8128 28.6173 42.0205C29.3467 40.2282 29.7118 38.3097 29.6919 36.3759V31.5625H17.7573V38.6345C17.7573 38.9667 17.6915 39.2955 17.5639 39.6023C17.4363 39.9091 17.2491 40.1879 17.0134 40.4227C16.7776 40.6576 16.4977 40.8438 16.1895 40.9709C15.8814 41.0978 15.5512 41.1632 15.2178 41.1632Z" fill="black"/>
</svg>
