<svg width="147" height="147" viewBox="0 0 147 147" fill="none" xmlns="http://www.w3.org/2000/svg">
<mask id="mask0_285_87" style="mask-type:luminance" maskUnits="userSpaceOnUse" x="0" y="0" width="147" height="147">
<path d="M147 0H0V147H147V0Z" fill="white"/>
</mask>
<g mask="url(#mask0_285_87)">
<path d="M73.5 147C114.093 147 147 114.093 147 73.5C147 32.9071 114.093 0 73.5 0C32.9071 0 0 32.9071 0 73.5C0 114.093 32.9071 147 73.5 147Z" fill="#FF0420"/>
<path d="M52.0772 93.0349C47.7008 93.0349 44.115 92.0052 41.3199 89.9455C38.5617 87.8493 37.1826 84.8703 37.1826 81.0088C37.1826 80.1996 37.2745 79.2066 37.4584 78.0299C37.9365 75.3818 38.6168 72.2006 39.4995 68.4863C42.0004 58.3725 48.4548 53.3157 58.8625 53.3157C61.6945 53.3157 64.2321 53.7938 66.4755 54.75C68.7189 55.6693 70.4842 57.0669 71.7714 58.9425C73.0585 60.7814 73.7022 62.9881 73.7022 65.5624C73.7022 66.3347 73.6101 67.3093 73.4264 68.4863C72.8746 71.7594 72.2127 74.9405 71.4404 78.0299C70.1531 83.0683 67.9282 86.8379 64.7653 89.3388C61.6024 91.8028 57.3731 93.0349 52.0772 93.0349ZM52.8495 85.091C54.909 85.091 56.6559 84.4843 58.0902 83.2706C59.5614 82.0569 60.6095 80.1996 61.2348 77.6987C62.0806 74.2419 62.7242 71.2262 63.1654 68.6516C63.3126 67.8793 63.3861 67.0887 63.3861 66.2796C63.3861 62.9328 61.6392 61.2596 58.1454 61.2596C56.0859 61.2596 54.3206 61.8663 52.8495 63.08C51.4152 64.2936 50.3854 66.1508 49.7603 68.6516C49.0983 71.1157 48.4364 74.1314 47.7743 77.6987C47.6272 78.4343 47.5537 79.2066 47.5537 80.0158C47.5537 83.3992 49.3189 85.091 52.8495 85.091Z" fill="white"/>
<path d="M76.2354 92.4834C75.8308 92.4834 75.5182 92.3546 75.2975 92.0972C75.1138 91.803 75.0585 91.4721 75.1322 91.1042L82.7449 55.2467C82.8184 54.842 83.0207 54.5111 83.3517 54.2537C83.6828 53.9962 84.0321 53.8674 84.4 53.8674H99.0739C103.156 53.8674 106.429 54.7132 108.893 56.405C111.394 58.0968 112.645 60.5425 112.645 63.7422C112.645 64.6615 112.534 65.6177 112.314 66.6107C111.394 70.8401 109.537 73.966 106.742 75.9889C103.984 78.0116 100.196 79.023 95.3779 79.023H87.9305L85.3929 91.1042C85.3193 91.5088 85.1171 91.8397 84.786 92.0972C84.4551 92.3546 84.1058 92.4834 83.7379 92.4834H76.2354ZM95.764 71.41C97.3086 71.41 98.6511 70.9872 99.7911 70.1412C100.968 69.2954 101.74 68.0818 102.108 66.5004C102.218 65.8751 102.274 65.3235 102.274 64.8454C102.274 63.7789 101.961 62.9697 101.336 62.4181C100.711 61.8297 99.644 61.5355 98.1362 61.5355H91.5162L89.42 71.41H95.764Z" fill="white"/>
</g>
</svg>
