<svg width="116" height="104" viewBox="0 0 116 104" fill="none" xmlns="http://www.w3.org/2000/svg">
<path d="M115.392 81.9976L96.2429 102.581C95.8288 103.028 95.3271 103.385 94.7694 103.629C94.2116 103.873 93.6096 103.999 93.0009 104H2.22492C1.79197 104 1.36848 103.873 1.00631 103.635C0.644142 103.397 0.359014 103.059 0.185838 102.661C0.0126626 102.263 -0.0410444 101.823 0.0312935 101.395C0.103631 100.968 0.298874 100.57 0.593116 100.252L19.7209 79.6684C20.1351 79.2214 20.6367 78.8646 21.1945 78.6204C21.7523 78.3763 22.3543 78.2499 22.9629 78.2493H113.739C114.176 78.2402 114.606 78.3609 114.974 78.5962C115.343 78.8315 115.634 79.1708 115.811 79.5715C115.987 79.9722 116.042 80.4163 115.968 80.848C115.893 81.2797 115.693 81.6797 115.392 81.9976ZM96.2429 40.5386C95.8271 40.0936 95.3252 39.7382 94.7678 39.4942C94.2103 39.2502 93.6091 39.1227 93.0009 39.1195H2.22492C1.79197 39.1197 1.36848 39.2465 1.00631 39.4843C0.644142 39.7222 0.359014 40.0607 0.185838 40.4585C0.0126626 40.8563 -0.0410444 41.2961 0.0312935 41.724C0.103631 42.1519 0.298874 42.5494 0.593116 42.8678L19.7209 63.4619C20.1367 63.9069 20.6386 64.2623 21.196 64.5063C21.7535 64.7503 22.3547 64.8778 22.9629 64.881H113.739C114.171 64.8787 114.593 64.7504 114.953 64.5117C115.314 64.2731 115.598 63.9344 115.769 63.537C115.941 63.1397 115.994 62.7008 115.921 62.2738C115.849 61.8469 115.654 61.4504 115.36 61.1327L96.2429 40.5386ZM2.22492 25.7512H93.0009C93.6096 25.7507 94.2116 25.6244 94.7694 25.3802C95.3272 25.136 95.8288 24.7792 96.2429 24.332L115.392 3.74879C115.617 3.51091 115.786 3.22625 115.888 2.91516C115.99 2.60407 116.022 2.27424 115.982 1.94925C115.942 1.62426 115.831 1.31212 115.657 1.03517C115.483 0.758213 115.249 0.523272 114.974 0.347142C114.605 0.112011 114.176 -0.00860091 113.739 0.000477249H22.9629C22.3543 0.00111949 21.7523 0.127463 21.1945 0.37163C20.6367 0.615796 20.1351 0.972548 19.7209 1.41964L0.593116 22.0029C0.298874 22.3213 0.103631 22.7188 0.0312935 23.1467C-0.0410444 23.5746 0.0126626 24.0144 0.185838 24.4122C0.359014 24.81 0.644142 25.1485 1.00631 25.3863C1.36848 25.6241 1.79197 25.7509 2.22492 25.7512Z" fill="url(#paint0_linear_285_120)"/>
<defs>
<linearGradient id="paint0_linear_285_120" x1="9.78959" y1="106.481" x2="105.237" y2="-0.860546" gradientUnits="userSpaceOnUse">
<stop offset="0.08" stop-color="#9945FF"/>
<stop offset="0.3" stop-color="#8752F3"/>
<stop offset="0.5" stop-color="#5497D5"/>
<stop offset="0.6" stop-color="#43B4CA"/>
<stop offset="0.72" stop-color="#28E0B9"/>
<stop offset="0.97" stop-color="#19FB9B"/>
</linearGradient>
</defs>
</svg>
